<?xml version="1.0" encoding="utf-8" ?>
<svg baseProfile="full" height="100%" version="1.1" width="100%" xmlns="http://www.w3.org/2000/svg" xmlns:ev="http://www.w3.org/2001/xml-events" xmlns:xlink="http://www.w3.org/1999/xlink"><defs /><line stroke="black" x1="100" x2="102.0" y1="500" y2="500.0" /><line stroke="black" x1="102.0" x2="103.0" y1="500.0" y2="498.267949192" /><line stroke="black" x1="103.0" x2="104.0" y1="498.267949192" y2="500.0" /><line stroke="black" x1="104.0" x2="106.0" y1="500.0" y2="500.0" /><line stroke="black" x1="106.0" x2="107.0" y1="500.0" y2="498.267949192" /><line stroke="black" x1="107.0" x2="106.0" y1="498.267949192" y2="496.535898385" /><line stroke="black" x1="106.0" x2="108.0" y1="496.535898385" y2="496.535898385" /><line stroke="black" x1="108.0" x2="109.0" y1="496.535898385" y2="494.803847577" /><line stroke="black" x1="109.0" x2="110.0" y1="494.803847577" y2="496.535898385" /><line stroke="black" x1="110.0" x2="112.0" y1="496.535898385" y2="496.535898385" /><line stroke="black" x1="112.0" x2="111.0" y1="496.535898385" y2="498.267949192" /><line stroke="black" x1="111.0" x2="112.0" y1="498.267949192" y2="500.0" /><line stroke="black" x1="112.0" x2="114.0" y1="500.0" y2="500.0" /><line stroke="black" x1="114.0" x2="115.0" y1="500.0" y2="498.267949192" /><line stroke="black" x1="115.0" x2="116.0" y1="498.267949192" y2="500.0" /><line stroke="black" x1="116.0" x2="118.0" y1="500.0" y2="500.0" /><line stroke="black" x1="118.0" x2="119.0" y1="500.0" y2="498.267949192" /><line stroke="black" x1="119.0" x2="118.0" y1="498.267949192" y2="496.535898385" /><line stroke="black" x1="118.0" x2="120.0" y1="496.535898385" y2="496.535898385" /><line stroke="black" x1="120.0" x2="121.0" y1="496.535898385" y2="494.803847577" /><line stroke="black" x1="121.0" x2="120.0" y1="494.803847577" y2="493.07179677" /><line stroke="black" x1="120.0" x2="118.0" y1="493.07179677" y2="493.07179677" /><line stroke="black" x1="118.0" x2="119.0" y1="493.07179677" y2="491.339745962" /><line stroke="black" x1="119.0" x2="118.0" y1="491.339745962" y2="489.607695155" /><line stroke="black" x1="118.0" x2="120.0" y1="489.607695155" y2="489.607695155" /><line stroke="black" x1="120.0" x2="121.0" y1="489.607695155" y2="487.875644347" /><line stroke="black" x1="121.0" x2="122.0" y1="487.875644347" y2="489.607695155" /><line stroke="black" x1="122.0" x2="124.0" y1="489.607695155" y2="489.607695155" /><line stroke="black" x1="124.0" x2="125.0" y1="489.607695155" y2="487.875644347" /><line stroke="black" x1="125.0" x2="124.0" y1="487.875644347" y2="486.143593539" /><line stroke="black" x1="124.0" x2="126.0" y1="486.143593539" y2="486.143593539" /><line stroke="black" x1="126.0" x2="127.0" y1="486.143593539" y2="484.411542732" /><line stroke="black" x1="127.0" x2="128.0" y1="484.411542732" y2="486.143593539" /><line stroke="black" x1="128.0" x2="130.0" y1="486.143593539" y2="486.143593539" /><line stroke="black" x1="130.0" x2="129.0" y1="486.143593539" y2="487.875644347" /><line stroke="black" x1="129.0" x2="130.0" y1="487.875644347" y2="489.607695155" /><line stroke="black" x1="130.0" x2="132.0" y1="489.607695155" y2="489.607695155" /><line stroke="black" x1="132.0" x2="133.0" y1="489.607695155" y2="487.875644347" /><line stroke="black" x1="133.0" x2="134.0" y1="487.875644347" y2="489.607695155" /><line stroke="black" x1="134.0" x2="136.0" y1="489.607695155" y2="489.607695155" /><line stroke="black" x1="136.0" x2="135.0" y1="489.607695155" y2="491.339745962" /><line stroke="black" x1="135.0" x2="136.0" y1="491.339745962" y2="493.07179677" /><line stroke="black" x1="136.0" x2="134.0" y1="493.07179677" y2="493.07179677" /><line stroke="black" x1="134.0" x2="133.0" y1="493.07179677" y2="494.803847577" /><line stroke="black" x1="133.0" x2="134.0" y1="494.803847577" y2="496.535898385" /><line stroke="black" x1="134.0" x2="136.0" y1="496.535898385" y2="496.535898385" /><line stroke="black" x1="136.0" x2="135.0" y1="496.535898385" y2="498.267949192" /><line stroke="black" x1="135.0" x2="136.0" y1="498.267949192" y2="500.0" /><line stroke="black" x1="136.0" x2="138.0" y1="500.0" y2="500.0" /><line stroke="black" x1="138.0" x2="139.0" y1="500.0" y2="498.267949192" /><line stroke="black" x1="139.0" x2="140.0" y1="498.267949192" y2="500.0" /><line stroke="black" x1="140.0" x2="142.0" y1="500.0" y2="500.0" /><line stroke="black" x1="142.0" x2="143.0" y1="500.0" y2="498.267949192" /><line stroke="black" x1="143.0" x2="142.0" y1="498.267949192" y2="496.535898385" /><line stroke="black" x1="142.0" x2="144.0" y1="496.535898385" y2="496.535898385" /><line stroke="black" x1="144.0" x2="145.0" y1="496.535898385" y2="494.803847577" /><line stroke="black" x1="145.0" x2="146.0" y1="494.803847577" y2="496.535898385" /><line stroke="black" x1="146.0" x2="148.0" y1="496.535898385" y2="496.535898385" /><line stroke="black" x1="148.0" x2="147.0" y1="496.535898385" y2="498.267949192" /><line stroke="black" x1="147.0" x2="148.0" y1="498.267949192" y2="500.0" /><line stroke="black" x1="148.0" x2="150.0" y1="500.0" y2="500.0" /><line stroke="black" x1="150.0" x2="151.0" y1="500.0" y2="498.267949192" /><line stroke="black" x1="151.0" x2="152.0" y1="498.267949192" y2="500.0" /><line stroke="black" x1="152.0" x2="154.0" y1="500.0" y2="500.0" /><line stroke="black" x1="154.0" x2="155.0" y1="500.0" y2="498.267949192" /><line stroke="black" x1="155.0" x2="154.0" y1="498.267949192" y2="496.535898385" /><line stroke="black" x1="154.0" x2="156.0" y1="496.535898385" y2="496.535898385" /><line stroke="black" x1="156.0" x2="157.0" y1="496.535898385" y2="494.803847577" /><line stroke="black" x1="157.0" x2="156.0" y1="494.803847577" y2="493.07179677" /><line stroke="black" x1="156.0" x2="154.0" y1="493.07179677" y2="493.07179677" /><line stroke="black" x1="154.0" x2="155.0" y1="493.07179677" y2="491.339745962" /><line stroke="black" x1="155.0" x2="154.0" y1="491.339745962" y2="489.607695155" /><line stroke="black" x1="154.0" x2="156.0" y1="489.607695155" y2="489.607695155" /><line stroke="black" x1="156.0" x2="157.0" y1="489.607695155" y2="487.875644347" /><line stroke="black" x1="157.0" x2="158.0" y1="487.875644347" y2="489.607695155" /><line stroke="black" x1="158.0" x2="160.0" y1="489.607695155" y2="489.607695155" /><line stroke="black" x1="160.0" x2="161.0" y1="489.607695155" y2="487.875644347" /><line stroke="black" x1="161.0" x2="160.0" y1="487.875644347" y2="486.143593539" /><line stroke="black" x1="160.0" x2="162.0" y1="486.143593539" y2="486.143593539" /><line stroke="black" x1="162.0" x2="163.0" y1="486.143593539" y2="484.411542732" /><line stroke="black" x1="163.0" x2="162.0" y1="484.411542732" y2="482.679491924" /><line stroke="black" x1="162.0" x2="160.0" y1="482.679491924" y2="482.679491924" /><line stroke="black" x1="160.0" x2="161.0" y1="482.679491924" y2="480.947441117" /><line stroke="black" x1="161.0" x2="160.0" y1="480.947441117" y2="479.215390309" /><line stroke="black" x1="160.0" x2="158.0" y1="479.215390309" y2="479.215390309" /><line stroke="black" x1="158.0" x2="157.0" y1="479.215390309" y2="480.947441117" /><line stroke="black" x1="157.0" x2="156.0" y1="480.947441117" y2="479.215390309" /><line stroke="black" x1="156.0" x2="154.0" y1="479.215390309" y2="479.215390309" /><line stroke="black" x1="154.0" x2="155.0" y1="479.215390309" y2="477.483339502" /><line stroke="black" x1="155.0" x2="154.0" y1="477.483339502" y2="475.751288694" /><line stroke="black" x1="154.0" x2="156.0" y1="475.751288694" y2="475.751288694" /><line stroke="black" x1="156.0" x2="157.0" y1="475.751288694" y2="474.019237886" /><line stroke="black" x1="157.0" x2="156.0" y1="474.019237886" y2="472.287187079" /><line stroke="black" x1="156.0" x2="154.0" y1="472.287187079" y2="472.287187079" /><line stroke="black" x1="154.0" x2="155.0" y1="472.287187079" y2="470.555136271" /><line stroke="black" x1="155.0" x2="154.0" y1="470.555136271" y2="468.823085464" /><line stroke="black" x1="154.0" x2="156.0" y1="468.823085464" y2="468.823085464" /><line stroke="black" x1="156.0" x2="157.0" y1="468.823085464" y2="467.091034656" /><line stroke="black" x1="157.0" x2="158.0" y1="467.091034656" y2="468.823085464" /><line stroke="black" x1="158.0" x2="160.0" y1="468.823085464" y2="468.823085464" /><line stroke="black" x1="160.0" x2="161.0" y1="468.823085464" y2="467.091034656" /><line stroke="black" x1="161.0" x2="160.0" y1="467.091034656" y2="465.358983849" /><line stroke="black" x1="160.0" x2="162.0" y1="465.358983849" y2="465.358983849" /><line stroke="black" x1="162.0" x2="163.0" y1="465.358983849" y2="463.626933041" /><line stroke="black" x1="163.0" x2="164.0" y1="463.626933041" y2="465.358983849" /><line stroke="black" x1="164.0" x2="166.0" y1="465.358983849" y2="465.358983849" /><line stroke="black" x1="166.0" x2="165.0" y1="465.358983849" y2="467.091034656" /><line stroke="black" x1="165.0" x2="166.0" y1="467.091034656" y2="468.823085464" /><line stroke="black" x1="166.0" x2="168.0" y1="468.823085464" y2="468.823085464" /><line stroke="black" x1="168.0" x2="169.0" y1="468.823085464" y2="467.091034656" /><line stroke="black" x1="169.0" x2="170.0" y1="467.091034656" y2="468.823085464" /><line stroke="black" x1="170.0" x2="172.0" y1="468.823085464" y2="468.823085464" /><line stroke="black" x1="172.0" x2="173.0" y1="468.823085464" y2="467.091034656" /><line stroke="black" x1="173.0" x2="172.0" y1="467.091034656" y2="465.358983849" /><line stroke="black" x1="172.0" x2="174.0" y1="465.358983849" y2="465.358983849" /><line stroke="black" x1="174.0" x2="175.0" y1="465.358983849" y2="463.626933041" /><line stroke="black" x1="175.0" x2="174.0" y1="463.626933041" y2="461.894882233" /><line stroke="black" x1="174.0" x2="172.0" y1="461.894882233" y2="461.894882233" /><line stroke="black" x1="172.0" x2="173.0" y1="461.894882233" y2="460.162831426" /><line stroke="black" x1="173.0" x2="172.0" y1="460.162831426" y2="458.430780618" /><line stroke="black" x1="172.0" x2="174.0" y1="458.430780618" y2="458.430780618" /><line stroke="black" x1="174.0" x2="175.0" y1="458.430780618" y2="456.698729811" /><line stroke="black" x1="175.0" x2="176.0" y1="456.698729811" y2="458.430780618" /><line stroke="black" x1="176.0" x2="178.0" y1="458.430780618" y2="458.430780618" /><line stroke="black" x1="178.0" x2="179.0" y1="458.430780618" y2="456.698729811" /><line stroke="black" x1="179.0" x2="178.0" y1="456.698729811" y2="454.966679003" /><line stroke="black" x1="178.0" x2="180.0" y1="454.966679003" y2="454.966679003" /><line stroke="black" x1="180.0" x2="181.0" y1="454.966679003" y2="453.234628196" /><line stroke="black" x1="181.0" x2="182.0" y1="453.234628196" y2="454.966679003" /><line stroke="black" x1="182.0" x2="184.0" y1="454.966679003" y2="454.966679003" /><line stroke="black" x1="184.0" x2="183.0" y1="454.966679003" y2="456.698729811" /><line stroke="black" x1="183.0" x2="184.0" y1="456.698729811" y2="458.430780618" /><line stroke="black" x1="184.0" x2="186.0" y1="458.430780618" y2="458.430780618" /><line stroke="black" x1="186.0" x2="187.0" y1="458.430780618" y2="456.698729811" /><line stroke="black" x1="187.0" x2="188.0" y1="456.698729811" y2="458.430780618" /><line stroke="black" x1="188.0" x2="190.0" y1="458.430780618" y2="458.430780618" /><line stroke="black" x1="190.0" x2="189.0" y1="458.430780618" y2="460.162831426" /><line stroke="black" x1="189.0" x2="190.0" y1="460.162831426" y2="461.894882233" /><line stroke="black" x1="190.0" x2="188.0" y1="461.894882233" y2="461.894882233" /><line stroke="black" x1="188.0" x2="187.0" y1="461.894882233" y2="463.626933041" /><line stroke="black" x1="187.0" x2="188.0" y1="463.626933041" y2="465.358983849" /><line stroke="black" x1="188.0" x2="190.0" y1="465.358983849" y2="465.358983849" /><line stroke="black" x1="190.0" x2="189.0" y1="465.358983849" y2="467.091034656" /><line stroke="black" x1="189.0" x2="190.0" y1="467.091034656" y2="468.823085464" /><line stroke="black" x1="190.0" x2="192.0" y1="468.823085464" y2="468.823085464" /><line stroke="black" x1="192.0" x2="193.0" y1="468.823085464" y2="467.091034656" /><line stroke="black" x1="193.0" x2="194.0" y1="467.091034656" y2="468.823085464" /><line stroke="black" x1="194.0" x2="196.0" y1="468.823085464" y2="468.823085464" /><line stroke="black" x1="196.0" x2="197.0" y1="468.823085464" y2="467.091034656" /><line stroke="black" x1="197.0" x2="196.0" y1="467.091034656" y2="465.358983849" /><line stroke="black" x1="196.0" x2="198.0" y1="465.358983849" y2="465.358983849" /><line stroke="black" x1="198.0" x2="199.0" y1="465.358983849" y2="463.626933041" /><line stroke="black" x1="199.0" x2="200.0" y1="463.626933041" y2="465.358983849" /><line stroke="black" x1="200.0" x2="202.0" y1="465.358983849" y2="465.358983849" /><line stroke="black" x1="202.0" x2="201.0" y1="465.358983849" y2="467.091034656" /><line stroke="black" x1="201.0" x2="202.0" y1="467.091034656" y2="468.823085464" /><line stroke="black" x1="202.0" x2="204.0" y1="468.823085464" y2="468.823085464" /><line stroke="black" x1="204.0" x2="205.0" y1="468.823085464" y2="467.091034656" /><line stroke="black" x1="205.0" x2="206.0" y1="467.091034656" y2="468.823085464" /><line stroke="black" x1="206.0" x2="208.0" y1="468.823085464" y2="468.823085464" /><line stroke="black" x1="208.0" x2="207.0" y1="468.823085464" y2="470.555136271" /><line stroke="black" x1="207.0" x2="208.0" y1="470.555136271" y2="472.287187079" /><line stroke="black" x1="208.0" x2="206.0" y1="472.287187079" y2="472.287187079" /><line stroke="black" x1="206.0" x2="205.0" y1="472.287187079" y2="474.019237886" /><line stroke="black" x1="205.0" x2="206.0" y1="474.019237886" y2="475.751288694" /><line stroke="black" x1="206.0" x2="208.0" y1="475.751288694" y2="475.751288694" /><line stroke="black" x1="208.0" x2="207.0" y1="475.751288694" y2="477.483339502" /><line stroke="black" x1="207.0" x2="208.0" y1="477.483339502" y2="479.215390309" /><line stroke="black" x1="208.0" x2="206.0" y1="479.215390309" y2="479.215390309" /><line stroke="black" x1="206.0" x2="205.0" y1="479.215390309" y2="480.947441117" /><line stroke="black" x1="205.0" x2="204.0" y1="480.947441117" y2="479.215390309" /><line stroke="black" x1="204.0" x2="202.0" y1="479.215390309" y2="479.215390309" /><line stroke="black" x1="202.0" x2="201.0" y1="479.215390309" y2="480.947441117" /><line stroke="black" x1="201.0" x2="202.0" y1="480.947441117" y2="482.679491924" /><line stroke="black" x1="202.0" x2="200.0" y1="482.679491924" y2="482.679491924" /><line stroke="black" x1="200.0" x2="199.0" y1="482.679491924" y2="484.411542732" /><line stroke="black" x1="199.0" x2="200.0" y1="484.411542732" y2="486.143593539" /><line stroke="black" x1="200.0" x2="202.0" y1="486.143593539" y2="486.143593539" /><line stroke="black" x1="202.0" x2="201.0" y1="486.143593539" y2="487.875644347" /><line stroke="black" x1="201.0" x2="202.0" y1="487.875644347" y2="489.607695155" /><line stroke="black" x1="202.0" x2="204.0" y1="489.607695155" y2="489.607695155" /><line stroke="black" x1="204.0" x2="205.0" y1="489.607695155" y2="487.875644347" /><line stroke="black" x1="205.0" x2="206.0" y1="487.875644347" y2="489.607695155" /><line stroke="black" x1="206.0" x2="208.0" y1="489.607695155" y2="489.607695155" /><line stroke="black" x1="208.0" x2="207.0" y1="489.607695155" y2="491.339745962" /><line stroke="black" x1="207.0" x2="208.0" y1="491.339745962" y2="493.07179677" /><line stroke="black" x1="208.0" x2="206.0" y1="493.07179677" y2="493.07179677" /><line stroke="black" x1="206.0" x2="205.0" y1="493.07179677" y2="494.803847577" /><line stroke="black" x1="205.0" x2="206.0" y1="494.803847577" y2="496.535898385" /><line stroke="black" x1="206.0" x2="208.0" y1="496.535898385" y2="496.535898385" /><line stroke="black" x1="208.0" x2="207.0" y1="496.535898385" y2="498.267949192" /><line stroke="black" x1="207.0" x2="208.0" y1="498.267949192" y2="500.0" /><line stroke="black" x1="208.0" x2="210.0" y1="500.0" y2="500.0" /><line stroke="black" x1="210.0" x2="211.0" y1="500.0" y2="498.267949192" /><line stroke="black" x1="211.0" x2="212.0" y1="498.267949192" y2="500.0" /><line stroke="black" x1="212.0" x2="214.0" y1="500.0" y2="500.0" /><line stroke="black" x1="214.0" x2="215.0" y1="500.0" y2="498.267949192" /><line stroke="black" x1="215.0" x2="214.0" y1="498.267949192" y2="496.535898385" /><line stroke="black" x1="214.0" x2="216.0" y1="496.535898385" y2="496.535898385" /><line stroke="black" x1="216.0" x2="217.0" y1="496.535898385" y2="494.803847577" /><line stroke="black" x1="217.0" x2="218.0" y1="494.803847577" y2="496.535898385" /><line stroke="black" x1="218.0" x2="220.0" y1="496.535898385" y2="496.535898385" /><line stroke="black" x1="220.0" x2="219.0" y1="496.535898385" y2="498.267949192" /><line stroke="black" x1="219.0" x2="220.0" y1="498.267949192" y2="500.0" /><line stroke="black" x1="220.0" x2="222.0" y1="500.0" y2="500.0" /><line stroke="black" x1="222.0" x2="223.0" y1="500.0" y2="498.267949192" /><line stroke="black" x1="223.0" x2="224.0" y1="498.267949192" y2="500.0" /><line stroke="black" x1="224.0" x2="226.0" y1="500.0" y2="500.0" /><line stroke="black" x1="226.0" x2="227.0" y1="500.0" y2="498.267949192" /><line stroke="black" x1="227.0" x2="226.0" y1="498.267949192" y2="496.535898385" /><line stroke="black" x1="226.0" x2="228.0" y1="496.535898385" y2="496.535898385" /><line stroke="black" x1="228.0" x2="229.0" y1="496.535898385" y2="494.803847577" /><line stroke="black" x1="229.0" x2="228.0" y1="494.803847577" y2="493.07179677" /><line stroke="black" x1="228.0" x2="226.0" y1="493.07179677" y2="493.07179677" /><line stroke="black" x1="226.0" x2="227.0" y1="493.07179677" y2="491.339745962" /><line stroke="black" x1="227.0" x2="226.0" y1="491.339745962" y2="489.607695155" /><line stroke="black" x1="226.0" x2="228.0" y1="489.607695155" y2="489.607695155" /><line stroke="black" x1="228.0" x2="229.0" y1="489.607695155" y2="487.875644347" /><line stroke="black" x1="229.0" x2="230.0" y1="487.875644347" y2="489.607695155" /><line stroke="black" x1="230.0" x2="232.0" y1="489.607695155" y2="489.607695155" /><line stroke="black" x1="232.0" x2="233.0" y1="489.607695155" y2="487.875644347" /><line stroke="black" x1="233.0" x2="232.0" y1="487.875644347" y2="486.143593539" /><line stroke="black" x1="232.0" x2="234.0" y1="486.143593539" y2="486.143593539" /><line stroke="black" x1="234.0" x2="235.0" y1="486.143593539" y2="484.411542732" /><line stroke="black" x1="235.0" x2="236.0" y1="484.411542732" y2="486.143593539" /><line stroke="black" x1="236.0" x2="238.0" y1="486.143593539" y2="486.143593539" /><line stroke="black" x1="238.0" x2="237.0" y1="486.143593539" y2="487.875644347" /><line stroke="black" x1="237.0" x2="238.0" y1="487.875644347" y2="489.607695155" /><line stroke="black" x1="238.0" x2="240.0" y1="489.607695155" y2="489.607695155" /><line stroke="black" x1="240.0" x2="241.0" y1="489.607695155" y2="487.875644347" /><line stroke="black" x1="241.0" x2="242.0" y1="487.875644347" y2="489.607695155" /><line stroke="black" x1="242.0" x2="244.0" y1="489.607695155" y2="489.607695155" /><line stroke="black" x1="244.0" x2="243.0" y1="489.607695155" y2="491.339745962" /><line stroke="black" x1="243.0" x2="244.0" y1="491.339745962" y2="493.07179677" /><line stroke="black" x1="244.0" x2="242.0" y1="493.07179677" y2="493.07179677" /><line stroke="black" x1="242.0" x2="241.0" y1="493.07179677" y2="494.803847577" /><line stroke="black" x1="241.0" x2="242.0" y1="494.803847577" y2="496.535898385" /><line stroke="black" x1="242.0" x2="244.0" y1="496.535898385" y2="496.535898385" /><line stroke="black" x1="244.0" x2="243.0" y1="496.535898385" y2="498.267949192" /><line stroke="black" x1="243.0" x2="244.0" y1="498.267949192" y2="500.0" /><line stroke="black" x1="244.0" x2="246.0" y1="500.0" y2="500.0" /><line stroke="black" x1="246.0" x2="247.0" y1="500.0" y2="498.267949192" /><line stroke="black" x1="247.0" x2="248.0" y1="498.267949192" y2="500.0" /><line stroke="black" x1="248.0" x2="250.0" y1="500.0" y2="500.0" /><line stroke="black" x1="250.0" x2="251.0" y1="500.0" y2="498.267949192" /><line stroke="black" x1="251.0" x2="250.0" y1="498.267949192" y2="496.535898385" /><line stroke="black" x1="250.0" x2="252.0" y1="496.535898385" y2="496.535898385" /><line stroke="black" x1="252.0" x2="253.0" y1="496.535898385" y2="494.803847577" /><line stroke="black" x1="253.0" x2="254.0" y1="494.803847577" y2="496.535898385" /><line stroke="black" x1="254.0" x2="256.0" y1="496.535898385" y2="496.535898385" /><line stroke="black" x1="256.0" x2="255.0" y1="496.535898385" y2="498.267949192" /><line stroke="black" x1="255.0" x2="256.0" y1="498.267949192" y2="500.0" /><line stroke="black" x1="256.0" x2="258.0" y1="500.0" y2="500.0" /><line stroke="black" x1="258.0" x2="259.0" y1="500.0" y2="498.267949192" /><line stroke="black" x1="259.0" x2="260.0" y1="498.267949192" y2="500.0" /><line stroke="black" x1="260.0" x2="262.0" y1="500.0" y2="500.0" /><line stroke="black" x1="262.0" x2="263.0" y1="500.0" y2="498.267949192" /><line stroke="black" x1="263.0" x2="262.0" y1="498.267949192" y2="496.535898385" /><line stroke="black" x1="262.0" x2="264.0" y1="496.535898385" y2="496.535898385" /><line stroke="black" x1="264.0" x2="265.0" y1="496.535898385" y2="494.803847577" /><line stroke="black" x1="265.0" x2="264.0" y1="494.803847577" y2="493.07179677" /><line stroke="black" x1="264.0" x2="262.0" y1="493.07179677" y2="493.07179677" /><line stroke="black" x1="262.0" x2="263.0" y1="493.07179677" y2="491.339745962" /><line stroke="black" x1="263.0" x2="262.0" y1="491.339745962" y2="489.607695155" /><line stroke="black" x1="262.0" x2="264.0" y1="489.607695155" y2="489.607695155" /><line stroke="black" x1="264.0" x2="265.0" y1="489.607695155" y2="487.875644347" /><line stroke="black" x1="265.0" x2="266.0" y1="487.875644347" y2="489.607695155" /><line stroke="black" x1="266.0" x2="268.0" y1="489.607695155" y2="489.607695155" /><line stroke="black" x1="268.0" x2="269.0" y1="489.607695155" y2="487.875644347" /><line stroke="black" x1="269.0" x2="268.0" y1="487.875644347" y2="486.143593539" /><line stroke="black" x1="268.0" x2="270.0" y1="486.143593539" y2="486.143593539" /><line stroke="black" x1="270.0" x2="271.0" y1="486.143593539" y2="484.411542732" /><line stroke="black" x1="271.0" x2="270.0" y1="484.411542732" y2="482.679491924" /><line stroke="black" x1="270.0" x2="268.0" y1="482.679491924" y2="482.679491924" /><line stroke="black" x1="268.0" x2="269.0" y1="482.679491924" y2="480.947441117" /><line stroke="black" x1="269.0" x2="268.0" y1="480.947441117" y2="479.215390309" /><line stroke="black" x1="268.0" x2="266.0" y1="479.215390309" y2="479.215390309" /><line stroke="black" x1="266.0" x2="265.0" y1="479.215390309" y2="480.947441117" /><line stroke="black" x1="265.0" x2="264.0" y1="480.947441117" y2="479.215390309" /><line stroke="black" x1="264.0" x2="262.0" y1="479.215390309" y2="479.215390309" /><line stroke="black" x1="262.0" x2="263.0" y1="479.215390309" y2="477.483339502" /><line stroke="black" x1="263.0" x2="262.0" y1="477.483339502" y2="475.751288694" /><line stroke="black" x1="262.0" x2="264.0" y1="475.751288694" y2="475.751288694" /><line stroke="black" x1="264.0" x2="265.0" y1="475.751288694" y2="474.019237886" /><line stroke="black" x1="265.0" x2="264.0" y1="474.019237886" y2="472.287187079" /><line stroke="black" x1="264.0" x2="262.0" y1="472.287187079" y2="472.287187079" /><line stroke="black" x1="262.0" x2="263.0" y1="472.287187079" y2="470.555136271" /><line stroke="black" x1="263.0" x2="262.0" y1="470.555136271" y2="468.823085464" /><line stroke="black" x1="262.0" x2="264.0" y1="468.823085464" y2="468.823085464" /><line stroke="black" x1="264.0" x2="265.0" y1="468.823085464" y2="467.091034656" /><line stroke="black" x1="265.0" x2="266.0" y1="467.091034656" y2="468.823085464" /><line stroke="black" x1="266.0" x2="268.0" y1="468.823085464" y2="468.823085464" /><line stroke="black" x1="268.0" x2="269.0" y1="468.823085464" y2="467.091034656" /><line stroke="black" x1="269.0" x2="268.0" y1="467.091034656" y2="465.358983849" /><line stroke="black" x1="268.0" x2="270.0" y1="465.358983849" y2="465.358983849" /><line stroke="black" x1="270.0" x2="271.0" y1="465.358983849" y2="463.626933041" /><line stroke="black" x1="271.0" x2="272.0" y1="463.626933041" y2="465.358983849" /><line stroke="black" x1="272.0" x2="274.0" y1="465.358983849" y2="465.358983849" /><line stroke="black" x1="274.0" x2="273.0" y1="465.358983849" y2="467.091034656" /><line stroke="black" x1="273.0" x2="274.0" y1="467.091034656" y2="468.823085464" /><line stroke="black" x1="274.0" x2="276.0" y1="468.823085464" y2="468.823085464" /><line stroke="black" x1="276.0" x2="277.0" y1="468.823085464" y2="467.091034656" /><line stroke="black" x1="277.0" x2="278.0" y1="467.091034656" y2="468.823085464" /><line stroke="black" x1="278.0" x2="280.0" y1="468.823085464" y2="468.823085464" /><line stroke="black" x1="280.0" x2="281.0" y1="468.823085464" y2="467.091034656" /><line stroke="black" x1="281.0" x2="280.0" y1="467.091034656" y2="465.358983849" /><line stroke="black" x1="280.0" x2="282.0" y1="465.358983849" y2="465.358983849" /><line stroke="black" x1="282.0" x2="283.0" y1="465.358983849" y2="463.626933041" /><line stroke="black" x1="283.0" x2="282.0" y1="463.626933041" y2="461.894882233" /><line stroke="black" x1="282.0" x2="280.0" y1="461.894882233" y2="461.894882233" /><line stroke="black" x1="280.0" x2="281.0" y1="461.894882233" y2="460.162831426" /><line stroke="black" x1="281.0" x2="280.0" y1="460.162831426" y2="458.430780618" /><line stroke="black" x1="280.0" x2="282.0" y1="458.430780618" y2="458.430780618" /><line stroke="black" x1="282.0" x2="283.0" y1="458.430780618" y2="456.698729811" /><line stroke="black" x1="283.0" x2="284.0" y1="456.698729811" y2="458.430780618" /><line stroke="black" x1="284.0" x2="286.0" y1="458.430780618" y2="458.430780618" /><line stroke="black" x1="286.0" x2="287.0" y1="458.430780618" y2="456.698729811" /><line stroke="black" x1="287.0" x2="286.0" y1="456.698729811" y2="454.966679003" /><line stroke="black" x1="286.0" x2="288.0" y1="454.966679003" y2="454.966679003" /><line stroke="black" x1="288.0" x2="289.0" y1="454.966679003" y2="453.234628196" /><line stroke="black" x1="289.0" x2="288.0" y1="453.234628196" y2="451.502577388" /><line stroke="black" x1="288.0" x2="286.0" y1="451.502577388" y2="451.502577388" /><line stroke="black" x1="286.0" x2="287.0" y1="451.502577388" y2="449.770526581" /><line stroke="black" x1="287.0" x2="286.0" y1="449.770526581" y2="448.038475773" /><line stroke="black" x1="286.0" x2="284.0" y1="448.038475773" y2="448.038475773" /><line stroke="black" x1="284.0" x2="283.0" y1="448.038475773" y2="449.770526581" /><line stroke="black" x1="283.0" x2="282.0" y1="449.770526581" y2="448.038475773" /><line stroke="black" x1="282.0" x2="280.0" y1="448.038475773" y2="448.038475773" /><line stroke="black" x1="280.0" x2="281.0" y1="448.038475773" y2="446.306424965" /><line stroke="black" x1="281.0" x2="280.0" y1="446.306424965" y2="444.574374158" /><line stroke="black" x1="280.0" x2="282.0" y1="444.574374158" y2="444.574374158" /><line stroke="black" x1="282.0" x2="283.0" y1="444.574374158" y2="442.84232335" /><line stroke="black" x1="283.0" x2="282.0" y1="442.84232335" y2="441.110272543" /><line stroke="black" x1="282.0" x2="280.0" y1="441.110272543" y2="441.110272543" /><line stroke="black" x1="280.0" x2="281.0" y1="441.110272543" y2="439.378221735" /><line stroke="black" x1="281.0" x2="280.0" y1="439.378221735" y2="437.646170928" /><line stroke="black" x1="280.0" x2="278.0" y1="437.646170928" y2="437.646170928" /><line stroke="black" x1="278.0" x2="277.0" y1="437.646170928" y2="439.378221735" /><line stroke="black" x1="277.0" x2="276.0" y1="439.378221735" y2="437.646170928" /><line stroke="black" x1="276.0" x2="274.0" y1="437.646170928" y2="437.646170928" /><line stroke="black" x1="274.0" x2="273.0" y1="437.646170928" y2="439.378221735" /><line stroke="black" x1="273.0" x2="274.0" y1="439.378221735" y2="441.110272543" /><line stroke="black" x1="274.0" x2="272.0" y1="441.110272543" y2="441.110272543" /><line stroke="black" x1="272.0" x2="271.0" y1="441.110272543" y2="442.84232335" /><line stroke="black" x1="271.0" x2="270.0" y1="442.84232335" y2="441.110272543" /><line stroke="black" x1="270.0" x2="268.0" y1="441.110272543" y2="441.110272543" /><line stroke="black" x1="268.0" x2="269.0" y1="441.110272543" y2="439.378221735" /><line stroke="black" x1="269.0" x2="268.0" y1="439.378221735" y2="437.646170928" /><line stroke="black" x1="268.0" x2="266.0" y1="437.646170928" y2="437.646170928" /><line stroke="black" x1="266.0" x2="265.0" y1="437.646170928" y2="439.378221735" /><line stroke="black" x1="265.0" x2="264.0" y1="439.378221735" y2="437.646170928" /><line stroke="black" x1="264.0" x2="262.0" y1="437.646170928" y2="437.646170928" /><line stroke="black" x1="262.0" x2="263.0" y1="437.646170928" y2="435.91412012" /><line stroke="black" x1="263.0" x2="262.0" y1="435.91412012" y2="434.182069312" /><line stroke="black" x1="262.0" x2="264.0" y1="434.182069312" y2="434.182069312" /><line stroke="black" x1="264.0" x2="265.0" y1="434.182069312" y2="432.450018505" /><line stroke="black" x1="265.0" x2="264.0" y1="432.450018505" y2="430.717967697" /><line stroke="black" x1="264.0" x2="262.0" y1="430.717967697" y2="430.717967697" /><line stroke="black" x1="262.0" x2="263.0" y1="430.717967697" y2="428.98591689" /><line stroke="black" x1="263.0" x2="262.0" y1="428.98591689" y2="427.253866082" /><line stroke="black" x1="262.0" x2="264.0" y1="427.253866082" y2="427.253866082" /><line stroke="black" x1="264.0" x2="265.0" y1="427.253866082" y2="425.521815275" /><line stroke="black" x1="265.0" x2="266.0" y1="425.521815275" y2="427.253866082" /><line stroke="black" x1="266.0" x2="268.0" y1="427.253866082" y2="427.253866082" /><line stroke="black" x1="268.0" x2="269.0" y1="427.253866082" y2="425.521815275" /><line stroke="black" x1="269.0" x2="268.0" y1="425.521815275" y2="423.789764467" /><line stroke="black" x1="268.0" x2="270.0" y1="423.789764467" y2="423.789764467" /><line stroke="black" x1="270.0" x2="271.0" y1="423.789764467" y2="422.057713659" /><line stroke="black" x1="271.0" x2="270.0" y1="422.057713659" y2="420.325662852" /><line stroke="black" x1="270.0" x2="268.0" y1="420.325662852" y2="420.325662852" /><line stroke="black" x1="268.0" x2="269.0" y1="420.325662852" y2="418.593612044" /><line stroke="black" x1="269.0" x2="268.0" y1="418.593612044" y2="416.861561237" /><line stroke="black" x1="268.0" x2="266.0" y1="416.861561237" y2="416.861561237" /><line stroke="black" x1="266.0" x2="265.0" y1="416.861561237" y2="418.593612044" /><line stroke="black" x1="265.0" x2="264.0" y1="418.593612044" y2="416.861561237" /><line stroke="black" x1="264.0" x2="262.0" y1="416.861561237" y2="416.861561237" /><line stroke="black" x1="262.0" x2="263.0" y1="416.861561237" y2="415.129510429" /><line stroke="black" x1="263.0" x2="262.0" y1="415.129510429" y2="413.397459622" /><line stroke="black" x1="262.0" x2="264.0" y1="413.397459622" y2="413.397459622" /><line stroke="black" x1="264.0" x2="265.0" y1="413.397459622" y2="411.665408814" /><line stroke="black" x1="265.0" x2="264.0" y1="411.665408814" y2="409.933358006" /><line stroke="black" x1="264.0" x2="262.0" y1="409.933358006" y2="409.933358006" /><line stroke="black" x1="262.0" x2="263.0" y1="409.933358006" y2="408.201307199" /><line stroke="black" x1="263.0" x2="262.0" y1="408.201307199" y2="406.469256391" /><line stroke="black" x1="262.0" x2="264.0" y1="406.469256391" y2="406.469256391" /><line stroke="black" x1="264.0" x2="265.0" y1="406.469256391" y2="404.737205584" /><line stroke="black" x1="265.0" x2="266.0" y1="404.737205584" y2="406.469256391" /><line stroke="black" x1="266.0" x2="268.0" y1="406.469256391" y2="406.469256391" /><line stroke="black" x1="268.0" x2="269.0" y1="406.469256391" y2="404.737205584" /><line stroke="black" x1="269.0" x2="268.0" y1="404.737205584" y2="403.005154776" /><line stroke="black" x1="268.0" x2="270.0" y1="403.005154776" y2="403.005154776" /><line stroke="black" x1="270.0" x2="271.0" y1="403.005154776" y2="401.273103969" /><line stroke="black" x1="271.0" x2="272.0" y1="401.273103969" y2="403.005154776" /><line stroke="black" x1="272.0" x2="274.0" y1="403.005154776" y2="403.005154776" /><line stroke="black" x1="274.0" x2="273.0" y1="403.005154776" y2="404.737205584" /><line stroke="black" x1="273.0" x2="274.0" y1="404.737205584" y2="406.469256391" /><line stroke="black" x1="274.0" x2="276.0" y1="406.469256391" y2="406.469256391" /><line stroke="black" x1="276.0" x2="277.0" y1="406.469256391" y2="404.737205584" /><line stroke="black" x1="277.0" x2="278.0" y1="404.737205584" y2="406.469256391" /><line stroke="black" x1="278.0" x2="280.0" y1="406.469256391" y2="406.469256391" /><line stroke="black" x1="280.0" x2="281.0" y1="406.469256391" y2="404.737205584" /><line stroke="black" x1="281.0" x2="280.0" y1="404.737205584" y2="403.005154776" /><line stroke="black" x1="280.0" x2="282.0" y1="403.005154776" y2="403.005154776" /><line stroke="black" x1="282.0" x2="283.0" y1="403.005154776" y2="401.273103969" /><line stroke="black" x1="283.0" x2="282.0" y1="401.273103969" y2="399.541053161" /><line stroke="black" x1="282.0" x2="280.0" y1="399.541053161" y2="399.541053161" /><line stroke="black" x1="280.0" x2="281.0" y1="399.541053161" y2="397.809002353" /><line stroke="black" x1="281.0" x2="280.0" y1="397.809002353" y2="396.076951546" /><line stroke="black" x1="280.0" x2="282.0" y1="396.076951546" y2="396.076951546" /><line stroke="black" x1="282.0" x2="283.0" y1="396.076951546" y2="394.344900738" /><line stroke="black" x1="283.0" x2="284.0" y1="394.344900738" y2="396.076951546" /><line stroke="black" x1="284.0" x2="286.0" y1="396.076951546" y2="396.076951546" /><line stroke="black" x1="286.0" x2="287.0" y1="396.076951546" y2="394.344900738" /><line stroke="black" x1="287.0" x2="286.0" y1="394.344900738" y2="392.612849931" /><line stroke="black" x1="286.0" x2="288.0" y1="392.612849931" y2="392.612849931" /><line stroke="black" x1="288.0" x2="289.0" y1="392.612849931" y2="390.880799123" /><line stroke="black" x1="289.0" x2="290.0" y1="390.880799123" y2="392.612849931" /><line stroke="black" x1="290.0" x2="292.0" y1="392.612849931" y2="392.612849931" /><line stroke="black" x1="292.0" x2="291.0" y1="392.612849931" y2="394.344900738" /><line stroke="black" x1="291.0" x2="292.0" y1="394.344900738" y2="396.076951546" /><line stroke="black" x1="292.0" x2="294.0" y1="396.076951546" y2="396.076951546" /><line stroke="black" x1="294.0" x2="295.0" y1="396.076951546" y2="394.344900738" /><line stroke="black" x1="295.0" x2="296.0" y1="394.344900738" y2="396.076951546" /><line stroke="black" x1="296.0" x2="298.0" y1="396.076951546" y2="396.076951546" /><line stroke="black" x1="298.0" x2="297.0" y1="396.076951546" y2="397.809002353" /><line stroke="black" x1="297.0" x2="298.0" y1="397.809002353" y2="399.541053161" /><line stroke="black" x1="298.0" x2="296.0" y1="399.541053161" y2="399.541053161" /><line stroke="black" x1="296.0" x2="295.0" y1="399.541053161" y2="401.273103969" /><line stroke="black" x1="295.0" x2="296.0" y1="401.273103969" y2="403.005154776" /><line stroke="black" x1="296.0" x2="298.0" y1="403.005154776" y2="403.005154776" /><line stroke="black" x1="298.0" x2="297.0" y1="403.005154776" y2="404.737205584" /><line stroke="black" x1="297.0" x2="298.0" y1="404.737205584" y2="406.469256391" /><line stroke="black" x1="298.0" x2="300.0" y1="406.469256391" y2="406.469256391" /><line stroke="black" x1="300.0" x2="301.0" y1="406.469256391" y2="404.737205584" /><line stroke="black" x1="301.0" x2="302.0" y1="404.737205584" y2="406.469256391" /><line stroke="black" x1="302.0" x2="304.0" y1="406.469256391" y2="406.469256391" /><line stroke="black" x1="304.0" x2="305.0" y1="406.469256391" y2="404.737205584" /><line stroke="black" x1="305.0" x2="304.0" y1="404.737205584" y2="403.005154776" /><line stroke="black" x1="304.0" x2="306.0" y1="403.005154776" y2="403.005154776" /><line stroke="black" x1="306.0" x2="307.0" y1="403.005154776" y2="401.273103969" /><line stroke="black" x1="307.0" x2="308.0" y1="401.273103969" y2="403.005154776" /><line stroke="black" x1="308.0" x2="310.0" y1="403.005154776" y2="403.005154776" /><line stroke="black" x1="310.0" x2="309.0" y1="403.005154776" y2="404.737205584" /><line stroke="black" x1="309.0" x2="310.0" y1="404.737205584" y2="406.469256391" /><line stroke="black" x1="310.0" x2="312.0" y1="406.469256391" y2="406.469256391" /><line stroke="black" x1="312.0" x2="313.0" y1="406.469256391" y2="404.737205584" /><line stroke="black" x1="313.0" x2="314.0" y1="404.737205584" y2="406.469256391" /><line stroke="black" x1="314.0" x2="316.0" y1="406.469256391" y2="406.469256391" /><line stroke="black" x1="316.0" x2="317.0" y1="406.469256391" y2="404.737205584" /><line stroke="black" x1="317.0" x2="316.0" y1="404.737205584" y2="403.005154776" /><line stroke="black" x1="316.0" x2="318.0" y1="403.005154776" y2="403.005154776" /><line stroke="black" x1="318.0" x2="319.0" y1="403.005154776" y2="401.273103969" /><line stroke="black" x1="319.0" x2="318.0" y1="401.273103969" y2="399.541053161" /><line stroke="black" x1="318.0" x2="316.0" y1="399.541053161" y2="399.541053161" /><line stroke="black" x1="316.0" x2="317.0" y1="399.541053161" y2="397.809002353" /><line stroke="black" x1="317.0" x2="316.0" y1="397.809002353" y2="396.076951546" /><line stroke="black" x1="316.0" x2="318.0" y1="396.076951546" y2="396.076951546" /><line stroke="black" x1="318.0" x2="319.0" y1="396.076951546" y2="394.344900738" /><line stroke="black" x1="319.0" x2="320.0" y1="394.344900738" y2="396.076951546" /><line stroke="black" x1="320.0" x2="322.0" y1="396.076951546" y2="396.076951546" /><line stroke="black" x1="322.0" x2="323.0" y1="396.076951546" y2="394.344900738" /><line stroke="black" x1="323.0" x2="322.0" y1="394.344900738" y2="392.612849931" /><line stroke="black" x1="322.0" x2="324.0" y1="392.612849931" y2="392.612849931" /><line stroke="black" x1="324.0" x2="325.0" y1="392.612849931" y2="390.880799123" /><line stroke="black" x1="325.0" x2="324.0" y1="390.880799123" y2="389.148748316" /><line stroke="black" x1="324.0" x2="322.0" y1="389.148748316" y2="389.148748316" /><line stroke="black" x1="322.0" x2="323.0" y1="389.148748316" y2="387.416697508" /><line stroke="black" x1="323.0" x2="322.0" y1="387.416697508" y2="385.6846467" /><line stroke="black" x1="322.0" x2="320.0" y1="385.6846467" y2="385.6846467" /><line stroke="black" x1="320.0" x2="319.0" y1="385.6846467" y2="387.416697508" /><line stroke="black" x1="319.0" x2="318.0" y1="387.416697508" y2="385.6846467" /><line stroke="black" x1="318.0" x2="316.0" y1="385.6846467" y2="385.6846467" /><line stroke="black" x1="316.0" x2="317.0" y1="385.6846467" y2="383.952595893" /><line stroke="black" x1="317.0" x2="316.0" y1="383.952595893" y2="382.220545085" /><line stroke="black" x1="316.0" x2="318.0" y1="382.220545085" y2="382.220545085" /><line stroke="black" x1="318.0" x2="319.0" y1="382.220545085" y2="380.488494278" /><line stroke="black" x1="319.0" x2="318.0" y1="380.488494278" y2="378.75644347" /><line stroke="black" x1="318.0" x2="316.0" y1="378.75644347" y2="378.75644347" /><line stroke="black" x1="316.0" x2="317.0" y1="378.75644347" y2="377.024392663" /><line stroke="black" x1="317.0" x2="316.0" y1="377.024392663" y2="375.292341855" /><line stroke="black" x1="316.0" x2="318.0" y1="375.292341855" y2="375.292341855" /><line stroke="black" x1="318.0" x2="319.0" y1="375.292341855" y2="373.560291047" /><line stroke="black" x1="319.0" x2="320.0" y1="373.560291047" y2="375.292341855" /><line stroke="black" x1="320.0" x2="322.0" y1="375.292341855" y2="375.292341855" /><line stroke="black" x1="322.0" x2="323.0" y1="375.292341855" y2="373.560291047" /><line stroke="black" x1="323.0" x2="322.0" y1="373.560291047" y2="371.82824024" /><line stroke="black" x1="322.0" x2="324.0" y1="371.82824024" y2="371.82824024" /><line stroke="black" x1="324.0" x2="325.0" y1="371.82824024" y2="370.096189432" /><line stroke="black" x1="325.0" x2="326.0" y1="370.096189432" y2="371.82824024" /><line stroke="black" x1="326.0" x2="328.0" y1="371.82824024" y2="371.82824024" /><line stroke="black" x1="328.0" x2="327.0" y1="371.82824024" y2="373.560291047" /><line stroke="black" x1="327.0" x2="328.0" y1="373.560291047" y2="375.292341855" /><line stroke="black" x1="328.0" x2="330.0" y1="375.292341855" y2="375.292341855" /><line stroke="black" x1="330.0" x2="331.0" y1="375.292341855" y2="373.560291047" /><line stroke="black" x1="331.0" x2="332.0" y1="373.560291047" y2="375.292341855" /><line stroke="black" x1="332.0" x2="334.0" y1="375.292341855" y2="375.292341855" /><line stroke="black" x1="334.0" x2="335.0" y1="375.292341855" y2="373.560291047" /><line stroke="black" x1="335.0" x2="334.0" y1="373.560291047" y2="371.82824024" /><line stroke="black" x1="334.0" x2="336.0" y1="371.82824024" y2="371.82824024" /><line stroke="black" x1="336.0" x2="337.0" y1="371.82824024" y2="370.096189432" /><line stroke="black" x1="337.0" x2="336.0" y1="370.096189432" y2="368.364138625" /><line stroke="black" x1="336.0" x2="334.0" y1="368.364138625" y2="368.364138625" /><line stroke="black" x1="334.0" x2="335.0" y1="368.364138625" y2="366.632087817" /><line stroke="black" x1="335.0" x2="334.0" y1="366.632087817" y2="364.90003701" /><line stroke="black" x1="334.0" x2="336.0" y1="364.90003701" y2="364.90003701" /><line stroke="black" x1="336.0" x2="337.0" y1="364.90003701" y2="363.167986202" /><line stroke="black" x1="337.0" x2="338.0" y1="363.167986202" y2="364.90003701" /><line stroke="black" x1="338.0" x2="340.0" y1="364.90003701" y2="364.90003701" /><line stroke="black" x1="340.0" x2="341.0" y1="364.90003701" y2="363.167986202" /><line stroke="black" x1="341.0" x2="340.0" y1="363.167986202" y2="361.435935394" /><line stroke="black" x1="340.0" x2="342.0" y1="361.435935394" y2="361.435935394" /><line stroke="black" x1="342.0" x2="343.0" y1="361.435935394" y2="359.703884587" /><line stroke="black" x1="343.0" x2="344.0" y1="359.703884587" y2="361.435935394" /><line stroke="black" x1="344.0" x2="346.0" y1="361.435935394" y2="361.435935394" /><line stroke="black" x1="346.0" x2="345.0" y1="361.435935394" y2="363.167986202" /><line stroke="black" x1="345.0" x2="346.0" y1="363.167986202" y2="364.90003701" /><line stroke="black" x1="346.0" x2="348.0" y1="364.90003701" y2="364.90003701" /><line stroke="black" x1="348.0" x2="349.0" y1="364.90003701" y2="363.167986202" /><line stroke="black" x1="349.0" x2="350.0" y1="363.167986202" y2="364.90003701" /><line stroke="black" x1="350.0" x2="352.0" y1="364.90003701" y2="364.90003701" /><line stroke="black" x1="352.0" x2="351.0" y1="364.90003701" y2="366.632087817" /><line stroke="black" x1="351.0" x2="352.0" y1="366.632087817" y2="368.364138625" /><line stroke="black" x1="352.0" x2="350.0" y1="368.364138625" y2="368.364138625" /><line stroke="black" x1="350.0" x2="349.0" y1="368.364138625" y2="370.096189432" /><line stroke="black" x1="349.0" x2="350.0" y1="370.096189432" y2="371.82824024" /><line stroke="black" x1="350.0" x2="352.0" y1="371.82824024" y2="371.82824024" /><line stroke="black" x1="352.0" x2="351.0" y1="371.82824024" y2="373.560291047" /><line stroke="black" x1="351.0" x2="352.0" y1="373.560291047" y2="375.292341855" /><line stroke="black" x1="352.0" x2="354.0" y1="375.292341855" y2="375.292341855" /><line stroke="black" x1="354.0" x2="355.0" y1="375.292341855" y2="373.560291047" /><line stroke="black" x1="355.0" x2="356.0" y1="373.560291047" y2="375.292341855" /><line stroke="black" x1="356.0" x2="358.0" y1="375.292341855" y2="375.292341855" /><line stroke="black" x1="358.0" x2="359.0" y1="375.292341855" y2="373.560291047" /><line stroke="black" x1="359.0" x2="358.0" y1="373.560291047" y2="371.82824024" /><line stroke="black" x1="358.0" x2="360.0" y1="371.82824024" y2="371.82824024" /><line stroke="black" x1="360.0" x2="361.0" y1="371.82824024" y2="370.096189432" /><line stroke="black" x1="361.0" x2="362.0" y1="370.096189432" y2="371.82824024" /><line stroke="black" x1="362.0" x2="364.0" y1="371.82824024" y2="371.82824024" /><line stroke="black" x1="364.0" x2="363.0" y1="371.82824024" y2="373.560291047" /><line stroke="black" x1="363.0" x2="364.0" y1="373.560291047" y2="375.292341855" /><line stroke="black" x1="364.0" x2="366.0" y1="375.292341855" y2="375.292341855" /><line stroke="black" x1="366.0" x2="367.0" y1="375.292341855" y2="373.560291047" /><line stroke="black" x1="367.0" x2="368.0" y1="373.560291047" y2="375.292341855" /><line stroke="black" x1="368.0" x2="370.0" y1="375.292341855" y2="375.292341855" /><line stroke="black" x1="370.0" x2="369.0" y1="375.292341855" y2="377.024392663" /><line stroke="black" x1="369.0" x2="370.0" y1="377.024392663" y2="378.75644347" /><line stroke="black" x1="370.0" x2="368.0" y1="378.75644347" y2="378.75644347" /><line stroke="black" x1="368.0" x2="367.0" y1="378.75644347" y2="380.488494278" /><line stroke="black" x1="367.0" x2="368.0" y1="380.488494278" y2="382.220545085" /><line stroke="black" x1="368.0" x2="370.0" y1="382.220545085" y2="382.220545085" /><line stroke="black" x1="370.0" x2="369.0" y1="382.220545085" y2="383.952595893" /><line stroke="black" x1="369.0" x2="370.0" y1="383.952595893" y2="385.6846467" /><line stroke="black" x1="370.0" x2="368.0" y1="385.6846467" y2="385.6846467" /><line stroke="black" x1="368.0" x2="367.0" y1="385.6846467" y2="387.416697508" /><line stroke="black" x1="367.0" x2="366.0" y1="387.416697508" y2="385.6846467" /><line stroke="black" x1="366.0" x2="364.0" y1="385.6846467" y2="385.6846467" /><line stroke="black" x1="364.0" x2="363.0" y1="385.6846467" y2="387.416697508" /><line stroke="black" x1="363.0" x2="364.0" y1="387.416697508" y2="389.148748316" /><line stroke="black" x1="364.0" x2="362.0" y1="389.148748316" y2="389.148748316" /><line stroke="black" x1="362.0" x2="361.0" y1="389.148748316" y2="390.880799123" /><line stroke="black" x1="361.0" x2="362.0" y1="390.880799123" y2="392.612849931" /><line stroke="black" x1="362.0" x2="364.0" y1="392.612849931" y2="392.612849931" /><line stroke="black" x1="364.0" x2="363.0" y1="392.612849931" y2="394.344900738" /><line stroke="black" x1="363.0" x2="364.0" y1="394.344900738" y2="396.076951546" /><line stroke="black" x1="364.0" x2="366.0" y1="396.076951546" y2="396.076951546" /><line stroke="black" x1="366.0" x2="367.0" y1="396.076951546" y2="394.344900738" /><line stroke="black" x1="367.0" x2="368.0" y1="394.344900738" y2="396.076951546" /><line stroke="black" x1="368.0" x2="370.0" y1="396.076951546" y2="396.076951546" /><line stroke="black" x1="370.0" x2="369.0" y1="396.076951546" y2="397.809002353" /><line stroke="black" x1="369.0" x2="370.0" y1="397.809002353" y2="399.541053161" /><line stroke="black" x1="370.0" x2="368.0" y1="399.541053161" y2="399.541053161" /><line stroke="black" x1="368.0" x2="367.0" y1="399.541053161" y2="401.273103969" /><line stroke="black" x1="367.0" x2="368.0" y1="401.273103969" y2="403.005154776" /><line stroke="black" x1="368.0" x2="370.0" y1="403.005154776" y2="403.005154776" /><line stroke="black" x1="370.0" x2="369.0" y1="403.005154776" y2="404.737205584" /><line stroke="black" x1="369.0" x2="370.0" y1="404.737205584" y2="406.469256391" /><line stroke="black" x1="370.0" x2="372.0" y1="406.469256391" y2="406.469256391" /><line stroke="black" x1="372.0" x2="373.0" y1="406.469256391" y2="404.737205584" /><line stroke="black" x1="373.0" x2="374.0" y1="404.737205584" y2="406.469256391" /><line stroke="black" x1="374.0" x2="376.0" y1="406.469256391" y2="406.469256391" /><line stroke="black" x1="376.0" x2="377.0" y1="406.469256391" y2="404.737205584" /><line stroke="black" x1="377.0" x2="376.0" y1="404.737205584" y2="403.005154776" /><line stroke="black" x1="376.0" x2="378.0" y1="403.005154776" y2="403.005154776" /><line stroke="black" x1="378.0" x2="379.0" y1="403.005154776" y2="401.273103969" /><line stroke="black" x1="379.0" x2="380.0" y1="401.273103969" y2="403.005154776" /><line stroke="black" x1="380.0" x2="382.0" y1="403.005154776" y2="403.005154776" /><line stroke="black" x1="382.0" x2="381.0" y1="403.005154776" y2="404.737205584" /><line stroke="black" x1="381.0" x2="382.0" y1="404.737205584" y2="406.469256391" /><line stroke="black" x1="382.0" x2="384.0" y1="406.469256391" y2="406.469256391" /><line stroke="black" x1="384.0" x2="385.0" y1="406.469256391" y2="404.737205584" /><line stroke="black" x1="385.0" x2="386.0" y1="404.737205584" y2="406.469256391" /><line stroke="black" x1="386.0" x2="388.0" y1="406.469256391" y2="406.469256391" /><line stroke="black" x1="388.0" x2="389.0" y1="406.469256391" y2="404.737205584" /><line stroke="black" x1="389.0" x2="388.0" y1="404.737205584" y2="403.005154776" /><line stroke="black" x1="388.0" x2="390.0" y1="403.005154776" y2="403.005154776" /><line stroke="black" x1="390.0" x2="391.0" y1="403.005154776" y2="401.273103969" /><line stroke="black" x1="391.0" x2="390.0" y1="401.273103969" y2="399.541053161" /><line stroke="black" x1="390.0" x2="388.0" y1="399.541053161" y2="399.541053161" /><line stroke="black" x1="388.0" x2="389.0" y1="399.541053161" y2="397.809002353" /><line stroke="black" x1="389.0" x2="388.0" y1="397.809002353" y2="396.076951546" /><line stroke="black" x1="388.0" x2="390.0" y1="396.076951546" y2="396.076951546" /><line stroke="black" x1="390.0" x2="391.0" y1="396.076951546" y2="394.344900738" /><line stroke="black" x1="391.0" x2="392.0" y1="394.344900738" y2="396.076951546" /><line stroke="black" x1="392.0" x2="394.0" y1="396.076951546" y2="396.076951546" /><line stroke="black" x1="394.0" x2="395.0" y1="396.076951546" y2="394.344900738" /><line stroke="black" x1="395.0" x2="394.0" y1="394.344900738" y2="392.612849931" /><line stroke="black" x1="394.0" x2="396.0" y1="392.612849931" y2="392.612849931" /><line stroke="black" x1="396.0" x2="397.0" y1="392.612849931" y2="390.880799123" /><line stroke="black" x1="397.0" x2="398.0" y1="390.880799123" y2="392.612849931" /><line stroke="black" x1="398.0" x2="400.0" y1="392.612849931" y2="392.612849931" /><line stroke="black" x1="400.0" x2="399.0" y1="392.612849931" y2="394.344900738" /><line stroke="black" x1="399.0" x2="400.0" y1="394.344900738" y2="396.076951546" /><line stroke="black" x1="400.0" x2="402.0" y1="396.076951546" y2="396.076951546" /><line stroke="black" x1="402.0" x2="403.0" y1="396.076951546" y2="394.344900738" /><line stroke="black" x1="403.0" x2="404.0" y1="394.344900738" y2="396.076951546" /><line stroke="black" x1="404.0" x2="406.0" y1="396.076951546" y2="396.076951546" /><line stroke="black" x1="406.0" x2="405.0" y1="396.076951546" y2="397.809002353" /><line stroke="black" x1="405.0" x2="406.0" y1="397.809002353" y2="399.541053161" /><line stroke="black" x1="406.0" x2="404.0" y1="399.541053161" y2="399.541053161" /><line stroke="black" x1="404.0" x2="403.0" y1="399.541053161" y2="401.273103969" /><line stroke="black" x1="403.0" x2="404.0" y1="401.273103969" y2="403.005154776" /><line stroke="black" x1="404.0" x2="406.0" y1="403.005154776" y2="403.005154776" /><line stroke="black" x1="406.0" x2="405.0" y1="403.005154776" y2="404.737205584" /><line stroke="black" x1="405.0" x2="406.0" y1="404.737205584" y2="406.469256391" /><line stroke="black" x1="406.0" x2="408.0" y1="406.469256391" y2="406.469256391" /><line stroke="black" x1="408.0" x2="409.0" y1="406.469256391" y2="404.737205584" /><line stroke="black" x1="409.0" x2="410.0" y1="404.737205584" y2="406.469256391" /><line stroke="black" x1="410.0" x2="412.0" y1="406.469256391" y2="406.469256391" /><line stroke="black" x1="412.0" x2="413.0" y1="406.469256391" y2="404.737205584" /><line stroke="black" x1="413.0" x2="412.0" y1="404.737205584" y2="403.005154776" /><line stroke="black" x1="412.0" x2="414.0" y1="403.005154776" y2="403.005154776" /><line stroke="black" x1="414.0" x2="415.0" y1="403.005154776" y2="401.273103969" /><line stroke="black" x1="415.0" x2="416.0" y1="401.273103969" y2="403.005154776" /><line stroke="black" x1="416.0" x2="418.0" y1="403.005154776" y2="403.005154776" /><line stroke="black" x1="418.0" x2="417.0" y1="403.005154776" y2="404.737205584" /><line stroke="black" x1="417.0" x2="418.0" y1="404.737205584" y2="406.469256391" /><line stroke="black" x1="418.0" x2="420.0" y1="406.469256391" y2="406.469256391" /><line stroke="black" x1="420.0" x2="421.0" y1="406.469256391" y2="404.737205584" /><line stroke="black" x1="421.0" x2="422.0" y1="404.737205584" y2="406.469256391" /><line stroke="black" x1="422.0" x2="424.0" y1="406.469256391" y2="406.469256391" /><line stroke="black" x1="424.0" x2="423.0" y1="406.469256391" y2="408.201307199" /><line stroke="black" x1="423.0" x2="424.0" y1="408.201307199" y2="409.933358006" /><line stroke="black" x1="424.0" x2="422.0" y1="409.933358006" y2="409.933358006" /><line stroke="black" x1="422.0" x2="421.0" y1="409.933358006" y2="411.665408814" /><line stroke="black" x1="421.0" x2="422.0" y1="411.665408814" y2="413.397459622" /><line stroke="black" x1="422.0" x2="424.0" y1="413.397459622" y2="413.397459622" /><line stroke="black" x1="424.0" x2="423.0" y1="413.397459622" y2="415.129510429" /><line stroke="black" x1="423.0" x2="424.0" y1="415.129510429" y2="416.861561237" /><line stroke="black" x1="424.0" x2="422.0" y1="416.861561237" y2="416.861561237" /><line stroke="black" x1="422.0" x2="421.0" y1="416.861561237" y2="418.593612044" /><line stroke="black" x1="421.0" x2="420.0" y1="418.593612044" y2="416.861561237" /><line stroke="black" x1="420.0" x2="418.0" y1="416.861561237" y2="416.861561237" /><line stroke="black" x1="418.0" x2="417.0" y1="416.861561237" y2="418.593612044" /><line stroke="black" x1="417.0" x2="418.0" y1="418.593612044" y2="420.325662852" /><line stroke="black" x1="418.0" x2="416.0" y1="420.325662852" y2="420.325662852" /><line stroke="black" x1="416.0" x2="415.0" y1="420.325662852" y2="422.057713659" /><line stroke="black" x1="415.0" x2="416.0" y1="422.057713659" y2="423.789764467" /><line stroke="black" x1="416.0" x2="418.0" y1="423.789764467" y2="423.789764467" /><line stroke="black" x1="418.0" x2="417.0" y1="423.789764467" y2="425.521815275" /><line stroke="black" x1="417.0" x2="418.0" y1="425.521815275" y2="427.253866082" /><line stroke="black" x1="418.0" x2="420.0" y1="427.253866082" y2="427.253866082" /><line stroke="black" x1="420.0" x2="421.0" y1="427.253866082" y2="425.521815275" /><line stroke="black" x1="421.0" x2="422.0" y1="425.521815275" y2="427.253866082" /><line stroke="black" x1="422.0" x2="424.0" y1="427.253866082" y2="427.253866082" /><line stroke="black" x1="424.0" x2="423.0" y1="427.253866082" y2="428.98591689" /><line stroke="black" x1="423.0" x2="424.0" y1="428.98591689" y2="430.717967697" /><line stroke="black" x1="424.0" x2="422.0" y1="430.717967697" y2="430.717967697" /><line stroke="black" x1="422.0" x2="421.0" y1="430.717967697" y2="432.450018505" /><line stroke="black" x1="421.0" x2="422.0" y1="432.450018505" y2="434.182069312" /><line stroke="black" x1="422.0" x2="424.0" y1="434.182069312" y2="434.182069312" /><line stroke="black" x1="424.0" x2="423.0" y1="434.182069312" y2="435.91412012" /><line stroke="black" x1="423.0" x2="424.0" y1="435.91412012" y2="437.646170928" /><line stroke="black" x1="424.0" x2="422.0" y1="437.646170928" y2="437.646170928" /><line stroke="black" x1="422.0" x2="421.0" y1="437.646170928" y2="439.378221735" /><line stroke="black" x1="421.0" x2="420.0" y1="439.378221735" y2="437.646170928" /><line stroke="black" x1="420.0" x2="418.0" y1="437.646170928" y2="437.646170928" /><line stroke="black" x1="418.0" x2="417.0" y1="437.646170928" y2="439.378221735" /><line stroke="black" x1="417.0" x2="418.0" y1="439.378221735" y2="441.110272543" /><line stroke="black" x1="418.0" x2="416.0" y1="441.110272543" y2="441.110272543" /><line stroke="black" x1="416.0" x2="415.0" y1="441.110272543" y2="442.84232335" /><line stroke="black" x1="415.0" x2="414.0" y1="442.84232335" y2="441.110272543" /><line stroke="black" x1="414.0" x2="412.0" y1="441.110272543" y2="441.110272543" /><line stroke="black" x1="412.0" x2="413.0" y1="441.110272543" y2="439.378221735" /><line stroke="black" x1="413.0" x2="412.0" y1="439.378221735" y2="437.646170928" /><line stroke="black" x1="412.0" x2="410.0" y1="437.646170928" y2="437.646170928" /><line stroke="black" x1="410.0" x2="409.0" y1="437.646170928" y2="439.378221735" /><line stroke="black" x1="409.0" x2="408.0" y1="439.378221735" y2="437.646170928" /><line stroke="black" x1="408.0" x2="406.0" y1="437.646170928" y2="437.646170928" /><line stroke="black" x1="406.0" x2="405.0" y1="437.646170928" y2="439.378221735" /><line stroke="black" x1="405.0" x2="406.0" y1="439.378221735" y2="441.110272543" /><line stroke="black" x1="406.0" x2="404.0" y1="441.110272543" y2="441.110272543" /><line stroke="black" x1="404.0" x2="403.0" y1="441.110272543" y2="442.84232335" /><line stroke="black" x1="403.0" x2="404.0" y1="442.84232335" y2="444.574374158" /><line stroke="black" x1="404.0" x2="406.0" y1="444.574374158" y2="444.574374158" /><line stroke="black" x1="406.0" x2="405.0" y1="444.574374158" y2="446.306424965" /><line stroke="black" x1="405.0" x2="406.0" y1="446.306424965" y2="448.038475773" /><line stroke="black" x1="406.0" x2="404.0" y1="448.038475773" y2="448.038475773" /><line stroke="black" x1="404.0" x2="403.0" y1="448.038475773" y2="449.770526581" /><line stroke="black" x1="403.0" x2="402.0" y1="449.770526581" y2="448.038475773" /><line stroke="black" x1="402.0" x2="400.0" y1="448.038475773" y2="448.038475773" /><line stroke="black" x1="400.0" x2="399.0" y1="448.038475773" y2="449.770526581" /><line stroke="black" x1="399.0" x2="400.0" y1="449.770526581" y2="451.502577388" /><line stroke="black" x1="400.0" x2="398.0" y1="451.502577388" y2="451.502577388" /><line stroke="black" x1="398.0" x2="397.0" y1="451.502577388" y2="453.234628196" /><line stroke="black" x1="397.0" x2="398.0" y1="453.234628196" y2="454.966679003" /><line stroke="black" x1="398.0" x2="400.0" y1="454.966679003" y2="454.966679003" /><line stroke="black" x1="400.0" x2="399.0" y1="454.966679003" y2="456.698729811" /><line stroke="black" x1="399.0" x2="400.0" y1="456.698729811" y2="458.430780618" /><line stroke="black" x1="400.0" x2="402.0" y1="458.430780618" y2="458.430780618" /><line stroke="black" x1="402.0" x2="403.0" y1="458.430780618" y2="456.698729811" /><line stroke="black" x1="403.0" x2="404.0" y1="456.698729811" y2="458.430780618" /><line stroke="black" x1="404.0" x2="406.0" y1="458.430780618" y2="458.430780618" /><line stroke="black" x1="406.0" x2="405.0" y1="458.430780618" y2="460.162831426" /><line stroke="black" x1="405.0" x2="406.0" y1="460.162831426" y2="461.894882233" /><line stroke="black" x1="406.0" x2="404.0" y1="461.894882233" y2="461.894882233" /><line stroke="black" x1="404.0" x2="403.0" y1="461.894882233" y2="463.626933041" /><line stroke="black" x1="403.0" x2="404.0" y1="463.626933041" y2="465.358983849" /><line stroke="black" x1="404.0" x2="406.0" y1="465.358983849" y2="465.358983849" /><line stroke="black" x1="406.0" x2="405.0" y1="465.358983849" y2="467.091034656" /><line stroke="black" x1="405.0" x2="406.0" y1="467.091034656" y2="468.823085464" /><line stroke="black" x1="406.0" x2="408.0" y1="468.823085464" y2="468.823085464" /><line stroke="black" x1="408.0" x2="409.0" y1="468.823085464" y2="467.091034656" /><line stroke="black" x1="409.0" x2="410.0" y1="467.091034656" y2="468.823085464" /><line stroke="black" x1="410.0" x2="412.0" y1="468.823085464" y2="468.823085464" /><line stroke="black" x1="412.0" x2="413.0" y1="468.823085464" y2="467.091034656" /><line stroke="black" x1="413.0" x2="412.0" y1="467.091034656" y2="465.358983849" /><line stroke="black" x1="412.0" x2="414.0" y1="465.358983849" y2="465.358983849" /><line stroke="black" x1="414.0" x2="415.0" y1="465.358983849" y2="463.626933041" /><line stroke="black" x1="415.0" x2="416.0" y1="463.626933041" y2="465.358983849" /><line stroke="black" x1="416.0" x2="418.0" y1="465.358983849" y2="465.358983849" /><line stroke="black" x1="418.0" x2="417.0" y1="465.358983849" y2="467.091034656" /><line stroke="black" x1="417.0" x2="418.0" y1="467.091034656" y2="468.823085464" /><line stroke="black" x1="418.0" x2="420.0" y1="468.823085464" y2="468.823085464" /><line stroke="black" x1="420.0" x2="421.0" y1="468.823085464" y2="467.091034656" /><line stroke="black" x1="421.0" x2="422.0" y1="467.091034656" y2="468.823085464" /><line stroke="black" x1="422.0" x2="424.0" y1="468.823085464" y2="468.823085464" /><line stroke="black" x1="424.0" x2="423.0" y1="468.823085464" y2="470.555136271" /><line stroke="black" x1="423.0" x2="424.0" y1="470.555136271" y2="472.287187079" /><line stroke="black" x1="424.0" x2="422.0" y1="472.287187079" y2="472.287187079" /><line stroke="black" x1="422.0" x2="421.0" y1="472.287187079" y2="474.019237886" /><line stroke="black" x1="421.0" x2="422.0" y1="474.019237886" y2="475.751288694" /><line stroke="black" x1="422.0" x2="424.0" y1="475.751288694" y2="475.751288694" /><line stroke="black" x1="424.0" x2="423.0" y1="475.751288694" y2="477.483339502" /><line stroke="black" x1="423.0" x2="424.0" y1="477.483339502" y2="479.215390309" /><line stroke="black" x1="424.0" x2="422.0" y1="479.215390309" y2="479.215390309" /><line stroke="black" x1="422.0" x2="421.0" y1="479.215390309" y2="480.947441117" /><line stroke="black" x1="421.0" x2="420.0" y1="480.947441117" y2="479.215390309" /><line stroke="black" x1="420.0" x2="418.0" y1="479.215390309" y2="479.215390309" /><line stroke="black" x1="418.0" x2="417.0" y1="479.215390309" y2="480.947441117" /><line stroke="black" x1="417.0" x2="418.0" y1="480.947441117" y2="482.679491924" /><line stroke="black" x1="418.0" x2="416.0" y1="482.679491924" y2="482.679491924" /><line stroke="black" x1="416.0" x2="415.0" y1="482.679491924" y2="484.411542732" /><line stroke="black" x1="415.0" x2="416.0" y1="484.411542732" y2="486.143593539" /><line stroke="black" x1="416.0" x2="418.0" y1="486.143593539" y2="486.143593539" /><line stroke="black" x1="418.0" x2="417.0" y1="486.143593539" y2="487.875644347" /><line stroke="black" x1="417.0" x2="418.0" y1="487.875644347" y2="489.607695155" /><line stroke="black" x1="418.0" x2="420.0" y1="489.607695155" y2="489.607695155" /><line stroke="black" x1="420.0" x2="421.0" y1="489.607695155" y2="487.875644347" /><line stroke="black" x1="421.0" x2="422.0" y1="487.875644347" y2="489.607695155" /><line stroke="black" x1="422.0" x2="424.0" y1="489.607695155" y2="489.607695155" /><line stroke="black" x1="424.0" x2="423.0" y1="489.607695155" y2="491.339745962" /><line stroke="black" x1="423.0" x2="424.0" y1="491.339745962" y2="493.07179677" /><line stroke="black" x1="424.0" x2="422.0" y1="493.07179677" y2="493.07179677" /><line stroke="black" x1="422.0" x2="421.0" y1="493.07179677" y2="494.803847577" /><line stroke="black" x1="421.0" x2="422.0" y1="494.803847577" y2="496.535898385" /><line stroke="black" x1="422.0" x2="424.0" y1="496.535898385" y2="496.535898385" /><line stroke="black" x1="424.0" x2="423.0" y1="496.535898385" y2="498.267949192" /><line stroke="black" x1="423.0" x2="424.0" y1="498.267949192" y2="500.0" /><line stroke="black" x1="424.0" x2="426.0" y1="500.0" y2="500.0" /><line stroke="black" x1="426.0" x2="427.0" y1="500.0" y2="498.267949192" /><line stroke="black" x1="427.0" x2="428.0" y1="498.267949192" y2="500.0" /><line stroke="black" x1="428.0" x2="430.0" y1="500.0" y2="500.0" /><line stroke="black" x1="430.0" x2="431.0" y1="500.0" y2="498.267949192" /><line stroke="black" x1="431.0" x2="430.0" y1="498.267949192" y2="496.535898385" /><line stroke="black" x1="430.0" x2="432.0" y1="496.535898385" y2="496.535898385" /><line stroke="black" x1="432.0" x2="433.0" y1="496.535898385" y2="494.803847577" /><line stroke="black" x1="433.0" x2="434.0" y1="494.803847577" y2="496.535898385" /><line stroke="black" x1="434.0" x2="436.0" y1="496.535898385" y2="496.535898385" /><line stroke="black" x1="436.0" x2="435.0" y1="496.535898385" y2="498.267949192" /><line stroke="black" x1="435.0" x2="436.0" y1="498.267949192" y2="500.0" /><line stroke="black" x1="436.0" x2="438.0" y1="500.0" y2="500.0" /><line stroke="black" x1="438.0" x2="439.0" y1="500.0" y2="498.267949192" /><line stroke="black" x1="439.0" x2="440.0" y1="498.267949192" y2="500.0" /><line stroke="black" x1="440.0" x2="442.0" y1="500.0" y2="500.0" /><line stroke="black" x1="442.0" x2="443.0" y1="500.0" y2="498.267949192" /><line stroke="black" x1="443.0" x2="442.0" y1="498.267949192" y2="496.535898385" /><line stroke="black" x1="442.0" x2="444.0" y1="496.535898385" y2="496.535898385" /><line stroke="black" x1="444.0" x2="445.0" y1="496.535898385" y2="494.803847577" /><line stroke="black" x1="445.0" x2="444.0" y1="494.803847577" y2="493.07179677" /><line stroke="black" x1="444.0" x2="442.0" y1="493.07179677" y2="493.07179677" /><line stroke="black" x1="442.0" x2="443.0" y1="493.07179677" y2="491.339745962" /><line stroke="black" x1="443.0" x2="442.0" y1="491.339745962" y2="489.607695155" /><line stroke="black" x1="442.0" x2="444.0" y1="489.607695155" y2="489.607695155" /><line stroke="black" x1="444.0" x2="445.0" y1="489.607695155" y2="487.875644347" /><line stroke="black" x1="445.0" x2="446.0" y1="487.875644347" y2="489.607695155" /><line stroke="black" x1="446.0" x2="448.0" y1="489.607695155" y2="489.607695155" /><line stroke="black" x1="448.0" x2="449.0" y1="489.607695155" y2="487.875644347" /><line stroke="black" x1="449.0" x2="448.0" y1="487.875644347" y2="486.143593539" /><line stroke="black" x1="448.0" x2="450.0" y1="486.143593539" y2="486.143593539" /><line stroke="black" x1="450.0" x2="451.0" y1="486.143593539" y2="484.411542732" /><line stroke="black" x1="451.0" x2="452.0" y1="484.411542732" y2="486.143593539" /><line stroke="black" x1="452.0" x2="454.0" y1="486.143593539" y2="486.143593539" /><line stroke="black" x1="454.0" x2="453.0" y1="486.143593539" y2="487.875644347" /><line stroke="black" x1="453.0" x2="454.0" y1="487.875644347" y2="489.607695155" /><line stroke="black" x1="454.0" x2="456.0" y1="489.607695155" y2="489.607695155" /><line stroke="black" x1="456.0" x2="457.0" y1="489.607695155" y2="487.875644347" /><line stroke="black" x1="457.0" x2="458.0" y1="487.875644347" y2="489.607695155" /><line stroke="black" x1="458.0" x2="460.0" y1="489.607695155" y2="489.607695155" /><line stroke="black" x1="460.0" x2="459.0" y1="489.607695155" y2="491.339745962" /><line stroke="black" x1="459.0" x2="460.0" y1="491.339745962" y2="493.07179677" /><line stroke="black" x1="460.0" x2="458.0" y1="493.07179677" y2="493.07179677" /><line stroke="black" x1="458.0" x2="457.0" y1="493.07179677" y2="494.803847577" /><line stroke="black" x1="457.0" x2="458.0" y1="494.803847577" y2="496.535898385" /><line stroke="black" x1="458.0" x2="460.0" y1="496.535898385" y2="496.535898385" /><line stroke="black" x1="460.0" x2="459.0" y1="496.535898385" y2="498.267949192" /><line stroke="black" x1="459.0" x2="460.0" y1="498.267949192" y2="500.0" /><line stroke="black" x1="460.0" x2="462.0" y1="500.0" y2="500.0" /><line stroke="black" x1="462.0" x2="463.0" y1="500.0" y2="498.267949192" /><line stroke="black" x1="463.0" x2="464.0" y1="498.267949192" y2="500.0" /><line stroke="black" x1="464.0" x2="466.0" y1="500.0" y2="500.0" /><line stroke="black" x1="466.0" x2="467.0" y1="500.0" y2="498.267949192" /><line stroke="black" x1="467.0" x2="466.0" y1="498.267949192" y2="496.535898385" /><line stroke="black" x1="466.0" x2="468.0" y1="496.535898385" y2="496.535898385" /><line stroke="black" x1="468.0" x2="469.0" y1="496.535898385" y2="494.803847577" /><line stroke="black" x1="469.0" x2="470.0" y1="494.803847577" y2="496.535898385" /><line stroke="black" x1="470.0" x2="472.0" y1="496.535898385" y2="496.535898385" /><line stroke="black" x1="472.0" x2="471.0" y1="496.535898385" y2="498.267949192" /><line stroke="black" x1="471.0" x2="472.0" y1="498.267949192" y2="500.0" /><line stroke="black" x1="472.0" x2="474.0" y1="500.0" y2="500.0" /><line stroke="black" x1="474.0" x2="475.0" y1="500.0" y2="498.267949192" /><line stroke="black" x1="475.0" x2="476.0" y1="498.267949192" y2="500.0" /><line stroke="black" x1="476.0" x2="478.0" y1="500.0" y2="500.0" /><line stroke="black" x1="478.0" x2="479.0" y1="500.0" y2="498.267949192" /><line stroke="black" x1="479.0" x2="478.0" y1="498.267949192" y2="496.535898385" /><line stroke="black" x1="478.0" x2="480.0" y1="496.535898385" y2="496.535898385" /><line stroke="black" x1="480.0" x2="481.0" y1="496.535898385" y2="494.803847577" /><line stroke="black" x1="481.0" x2="480.0" y1="494.803847577" y2="493.07179677" /><line stroke="black" x1="480.0" x2="478.0" y1="493.07179677" y2="493.07179677" /><line stroke="black" x1="478.0" x2="479.0" y1="493.07179677" y2="491.339745962" /><line stroke="black" x1="479.0" x2="478.0" y1="491.339745962" y2="489.607695155" /><line stroke="black" x1="478.0" x2="480.0" y1="489.607695155" y2="489.607695155" /><line stroke="black" x1="480.0" x2="481.0" y1="489.607695155" y2="487.875644347" /><line stroke="black" x1="481.0" x2="482.0" y1="487.875644347" y2="489.607695155" /><line stroke="black" x1="482.0" x2="484.0" y1="489.607695155" y2="489.607695155" /><line stroke="black" x1="484.0" x2="485.0" y1="489.607695155" y2="487.875644347" /><line stroke="black" x1="485.0" x2="484.0" y1="487.875644347" y2="486.143593539" /><line stroke="black" x1="484.0" x2="486.0" y1="486.143593539" y2="486.143593539" /><line stroke="black" x1="486.0" x2="487.0" y1="486.143593539" y2="484.411542732" /><line stroke="black" x1="487.0" x2="486.0" y1="484.411542732" y2="482.679491924" /><line stroke="black" x1="486.0" x2="484.0" y1="482.679491924" y2="482.679491924" /><line stroke="black" x1="484.0" x2="485.0" y1="482.679491924" y2="480.947441117" /><line stroke="black" x1="485.0" x2="484.0" y1="480.947441117" y2="479.215390309" /><line stroke="black" x1="484.0" x2="482.0" y1="479.215390309" y2="479.215390309" /><line stroke="black" x1="482.0" x2="481.0" y1="479.215390309" y2="480.947441117" /><line stroke="black" x1="481.0" x2="480.0" y1="480.947441117" y2="479.215390309" /><line stroke="black" x1="480.0" x2="478.0" y1="479.215390309" y2="479.215390309" /><line stroke="black" x1="478.0" x2="479.0" y1="479.215390309" y2="477.483339502" /><line stroke="black" x1="479.0" x2="478.0" y1="477.483339502" y2="475.751288694" /><line stroke="black" x1="478.0" x2="480.0" y1="475.751288694" y2="475.751288694" /><line stroke="black" x1="480.0" x2="481.0" y1="475.751288694" y2="474.019237886" /><line stroke="black" x1="481.0" x2="480.0" y1="474.019237886" y2="472.287187079" /><line stroke="black" x1="480.0" x2="478.0" y1="472.287187079" y2="472.287187079" /><line stroke="black" x1="478.0" x2="479.0" y1="472.287187079" y2="470.555136271" /><line stroke="black" x1="479.0" x2="478.0" y1="470.555136271" y2="468.823085464" /><line stroke="black" x1="478.0" x2="480.0" y1="468.823085464" y2="468.823085464" /><line stroke="black" x1="480.0" x2="481.0" y1="468.823085464" y2="467.091034656" /><line stroke="black" x1="481.0" x2="482.0" y1="467.091034656" y2="468.823085464" /><line stroke="black" x1="482.0" x2="484.0" y1="468.823085464" y2="468.823085464" /><line stroke="black" x1="484.0" x2="485.0" y1="468.823085464" y2="467.091034656" /><line stroke="black" x1="485.0" x2="484.0" y1="467.091034656" y2="465.358983849" /><line stroke="black" x1="484.0" x2="486.0" y1="465.358983849" y2="465.358983849" /><line stroke="black" x1="486.0" x2="487.0" y1="465.358983849" y2="463.626933041" /><line stroke="black" x1="487.0" x2="488.0" y1="463.626933041" y2="465.358983849" /><line stroke="black" x1="488.0" x2="490.0" y1="465.358983849" y2="465.358983849" /><line stroke="black" x1="490.0" x2="489.0" y1="465.358983849" y2="467.091034656" /><line stroke="black" x1="489.0" x2="490.0" y1="467.091034656" y2="468.823085464" /><line stroke="black" x1="490.0" x2="492.0" y1="468.823085464" y2="468.823085464" /><line stroke="black" x1="492.0" x2="493.0" y1="468.823085464" y2="467.091034656" /><line stroke="black" x1="493.0" x2="494.0" y1="467.091034656" y2="468.823085464" /><line stroke="black" x1="494.0" x2="496.0" y1="468.823085464" y2="468.823085464" /><line stroke="black" x1="496.0" x2="497.0" y1="468.823085464" y2="467.091034656" /><line stroke="black" x1="497.0" x2="496.0" y1="467.091034656" y2="465.358983849" /><line stroke="black" x1="496.0" x2="498.0" y1="465.358983849" y2="465.358983849" /><line stroke="black" x1="498.0" x2="499.0" y1="465.358983849" y2="463.626933041" /><line stroke="black" x1="499.0" x2="498.0" y1="463.626933041" y2="461.894882233" /><line stroke="black" x1="498.0" x2="496.0" y1="461.894882233" y2="461.894882233" /><line stroke="black" x1="496.0" x2="497.0" y1="461.894882233" y2="460.162831426" /><line stroke="black" x1="497.0" x2="496.0" y1="460.162831426" y2="458.430780618" /><line stroke="black" x1="496.0" x2="498.0" y1="458.430780618" y2="458.430780618" /><line stroke="black" x1="498.0" x2="499.0" y1="458.430780618" y2="456.698729811" /><line stroke="black" x1="499.0" x2="500.0" y1="456.698729811" y2="458.430780618" /><line stroke="black" x1="500.0" x2="502.0" y1="458.430780618" y2="458.430780618" /><line stroke="black" x1="502.0" x2="503.0" y1="458.430780618" y2="456.698729811" /><line stroke="black" x1="503.0" x2="502.0" y1="456.698729811" y2="454.966679003" /><line stroke="black" x1="502.0" x2="504.0" y1="454.966679003" y2="454.966679003" /><line stroke="black" x1="504.0" x2="505.0" y1="454.966679003" y2="453.234628196" /><line stroke="black" x1="505.0" x2="506.0" y1="453.234628196" y2="454.966679003" /><line stroke="black" x1="506.0" x2="508.0" y1="454.966679003" y2="454.966679003" /><line stroke="black" x1="508.0" x2="507.0" y1="454.966679003" y2="456.698729811" /><line stroke="black" x1="507.0" x2="508.0" y1="456.698729811" y2="458.430780618" /><line stroke="black" x1="508.0" x2="510.0" y1="458.430780618" y2="458.430780618" /><line stroke="black" x1="510.0" x2="511.0" y1="458.430780618" y2="456.698729811" /><line stroke="black" x1="511.0" x2="512.0" y1="456.698729811" y2="458.430780618" /><line stroke="black" x1="512.0" x2="514.0" y1="458.430780618" y2="458.430780618" /><line stroke="black" x1="514.0" x2="513.0" y1="458.430780618" y2="460.162831426" /><line stroke="black" x1="513.0" x2="514.0" y1="460.162831426" y2="461.894882233" /><line stroke="black" x1="514.0" x2="512.0" y1="461.894882233" y2="461.894882233" /><line stroke="black" x1="512.0" x2="511.0" y1="461.894882233" y2="463.626933041" /><line stroke="black" x1="511.0" x2="512.0" y1="463.626933041" y2="465.358983849" /><line stroke="black" x1="512.0" x2="514.0" y1="465.358983849" y2="465.358983849" /><line stroke="black" x1="514.0" x2="513.0" y1="465.358983849" y2="467.091034656" /><line stroke="black" x1="513.0" x2="514.0" y1="467.091034656" y2="468.823085464" /><line stroke="black" x1="514.0" x2="516.0" y1="468.823085464" y2="468.823085464" /><line stroke="black" x1="516.0" x2="517.0" y1="468.823085464" y2="467.091034656" /><line stroke="black" x1="517.0" x2="518.0" y1="467.091034656" y2="468.823085464" /><line stroke="black" x1="518.0" x2="520.0" y1="468.823085464" y2="468.823085464" /><line stroke="black" x1="520.0" x2="521.0" y1="468.823085464" y2="467.091034656" /><line stroke="black" x1="521.0" x2="520.0" y1="467.091034656" y2="465.358983849" /><line stroke="black" x1="520.0" x2="522.0" y1="465.358983849" y2="465.358983849" /><line stroke="black" x1="522.0" x2="523.0" y1="465.358983849" y2="463.626933041" /><line stroke="black" x1="523.0" x2="524.0" y1="463.626933041" y2="465.358983849" /><line stroke="black" x1="524.0" x2="526.0" y1="465.358983849" y2="465.358983849" /><line stroke="black" x1="526.0" x2="525.0" y1="465.358983849" y2="467.091034656" /><line stroke="black" x1="525.0" x2="526.0" y1="467.091034656" y2="468.823085464" /><line stroke="black" x1="526.0" x2="528.0" y1="468.823085464" y2="468.823085464" /><line stroke="black" x1="528.0" x2="529.0" y1="468.823085464" y2="467.091034656" /><line stroke="black" x1="529.0" x2="530.0" y1="467.091034656" y2="468.823085464" /><line stroke="black" x1="530.0" x2="532.0" y1="468.823085464" y2="468.823085464" /><line stroke="black" x1="532.0" x2="531.0" y1="468.823085464" y2="470.555136271" /><line stroke="black" x1="531.0" x2="532.0" y1="470.555136271" y2="472.287187079" /><line stroke="black" x1="532.0" x2="530.0" y1="472.287187079" y2="472.287187079" /><line stroke="black" x1="530.0" x2="529.0" y1="472.287187079" y2="474.019237886" /><line stroke="black" x1="529.0" x2="530.0" y1="474.019237886" y2="475.751288694" /><line stroke="black" x1="530.0" x2="532.0" y1="475.751288694" y2="475.751288694" /><line stroke="black" x1="532.0" x2="531.0" y1="475.751288694" y2="477.483339502" /><line stroke="black" x1="531.0" x2="532.0" y1="477.483339502" y2="479.215390309" /><line stroke="black" x1="532.0" x2="530.0" y1="479.215390309" y2="479.215390309" /><line stroke="black" x1="530.0" x2="529.0" y1="479.215390309" y2="480.947441117" /><line stroke="black" x1="529.0" x2="528.0" y1="480.947441117" y2="479.215390309" /><line stroke="black" x1="528.0" x2="526.0" y1="479.215390309" y2="479.215390309" /><line stroke="black" x1="526.0" x2="525.0" y1="479.215390309" y2="480.947441117" /><line stroke="black" x1="525.0" x2="526.0" y1="480.947441117" y2="482.679491924" /><line stroke="black" x1="526.0" x2="524.0" y1="482.679491924" y2="482.679491924" /><line stroke="black" x1="524.0" x2="523.0" y1="482.679491924" y2="484.411542732" /><line stroke="black" x1="523.0" x2="524.0" y1="484.411542732" y2="486.143593539" /><line stroke="black" x1="524.0" x2="526.0" y1="486.143593539" y2="486.143593539" /><line stroke="black" x1="526.0" x2="525.0" y1="486.143593539" y2="487.875644347" /><line stroke="black" x1="525.0" x2="526.0" y1="487.875644347" y2="489.607695155" /><line stroke="black" x1="526.0" x2="528.0" y1="489.607695155" y2="489.607695155" /><line stroke="black" x1="528.0" x2="529.0" y1="489.607695155" y2="487.875644347" /><line stroke="black" x1="529.0" x2="530.0" y1="487.875644347" y2="489.607695155" /><line stroke="black" x1="530.0" x2="532.0" y1="489.607695155" y2="489.607695155" /><line stroke="black" x1="532.0" x2="531.0" y1="489.607695155" y2="491.339745962" /><line stroke="black" x1="531.0" x2="532.0" y1="491.339745962" y2="493.07179677" /><line stroke="black" x1="532.0" x2="530.0" y1="493.07179677" y2="493.07179677" /><line stroke="black" x1="530.0" x2="529.0" y1="493.07179677" y2="494.803847577" /><line stroke="black" x1="529.0" x2="530.0" y1="494.803847577" y2="496.535898385" /><line stroke="black" x1="530.0" x2="532.0" y1="496.535898385" y2="496.535898385" /><line stroke="black" x1="532.0" x2="531.0" y1="496.535898385" y2="498.267949192" /><line stroke="black" x1="531.0" x2="532.0" y1="498.267949192" y2="500.0" /><line stroke="black" x1="532.0" x2="534.0" y1="500.0" y2="500.0" /><line stroke="black" x1="534.0" x2="535.0" y1="500.0" y2="498.267949192" /><line stroke="black" x1="535.0" x2="536.0" y1="498.267949192" y2="500.0" /><line stroke="black" x1="536.0" x2="538.0" y1="500.0" y2="500.0" /><line stroke="black" x1="538.0" x2="539.0" y1="500.0" y2="498.267949192" /><line stroke="black" x1="539.0" x2="538.0" y1="498.267949192" y2="496.535898385" /><line stroke="black" x1="538.0" x2="540.0" y1="496.535898385" y2="496.535898385" /><line stroke="black" x1="540.0" x2="541.0" y1="496.535898385" y2="494.803847577" /><line stroke="black" x1="541.0" x2="542.0" y1="494.803847577" y2="496.535898385" /><line stroke="black" x1="542.0" x2="544.0" y1="496.535898385" y2="496.535898385" /><line stroke="black" x1="544.0" x2="543.0" y1="496.535898385" y2="498.267949192" /><line stroke="black" x1="543.0" x2="544.0" y1="498.267949192" y2="500.0" /><line stroke="black" x1="544.0" x2="546.0" y1="500.0" y2="500.0" /><line stroke="black" x1="546.0" x2="547.0" y1="500.0" y2="498.267949192" /><line stroke="black" x1="547.0" x2="548.0" y1="498.267949192" y2="500.0" /><line stroke="black" x1="548.0" x2="550.0" y1="500.0" y2="500.0" /><line stroke="black" x1="550.0" x2="551.0" y1="500.0" y2="498.267949192" /><line stroke="black" x1="551.0" x2="550.0" y1="498.267949192" y2="496.535898385" /><line stroke="black" x1="550.0" x2="552.0" y1="496.535898385" y2="496.535898385" /><line stroke="black" x1="552.0" x2="553.0" y1="496.535898385" y2="494.803847577" /><line stroke="black" x1="553.0" x2="552.0" y1="494.803847577" y2="493.07179677" /><line stroke="black" x1="552.0" x2="550.0" y1="493.07179677" y2="493.07179677" /><line stroke="black" x1="550.0" x2="551.0" y1="493.07179677" y2="491.339745962" /><line stroke="black" x1="551.0" x2="550.0" y1="491.339745962" y2="489.607695155" /><line stroke="black" x1="550.0" x2="552.0" y1="489.607695155" y2="489.607695155" /><line stroke="black" x1="552.0" x2="553.0" y1="489.607695155" y2="487.875644347" /><line stroke="black" x1="553.0" x2="554.0" y1="487.875644347" y2="489.607695155" /><line stroke="black" x1="554.0" x2="556.0" y1="489.607695155" y2="489.607695155" /><line stroke="black" x1="556.0" x2="557.0" y1="489.607695155" y2="487.875644347" /><line stroke="black" x1="557.0" x2="556.0" y1="487.875644347" y2="486.143593539" /><line stroke="black" x1="556.0" x2="558.0" y1="486.143593539" y2="486.143593539" /><line stroke="black" x1="558.0" x2="559.0" y1="486.143593539" y2="484.411542732" /><line stroke="black" x1="559.0" x2="560.0" y1="484.411542732" y2="486.143593539" /><line stroke="black" x1="560.0" x2="562.0" y1="486.143593539" y2="486.143593539" /><line stroke="black" x1="562.0" x2="561.0" y1="486.143593539" y2="487.875644347" /><line stroke="black" x1="561.0" x2="562.0" y1="487.875644347" y2="489.607695155" /><line stroke="black" x1="562.0" x2="564.0" y1="489.607695155" y2="489.607695155" /><line stroke="black" x1="564.0" x2="565.0" y1="489.607695155" y2="487.875644347" /><line stroke="black" x1="565.0" x2="566.0" y1="487.875644347" y2="489.607695155" /><line stroke="black" x1="566.0" x2="568.0" y1="489.607695155" y2="489.607695155" /><line stroke="black" x1="568.0" x2="567.0" y1="489.607695155" y2="491.339745962" /><line stroke="black" x1="567.0" x2="568.0" y1="491.339745962" y2="493.07179677" /><line stroke="black" x1="568.0" x2="566.0" y1="493.07179677" y2="493.07179677" /><line stroke="black" x1="566.0" x2="565.0" y1="493.07179677" y2="494.803847577" /><line stroke="black" x1="565.0" x2="566.0" y1="494.803847577" y2="496.535898385" /><line stroke="black" x1="566.0" x2="568.0" y1="496.535898385" y2="496.535898385" /><line stroke="black" x1="568.0" x2="567.0" y1="496.535898385" y2="498.267949192" /><line stroke="black" x1="567.0" x2="568.0" y1="498.267949192" y2="500.0" /><line stroke="black" x1="568.0" x2="570.0" y1="500.0" y2="500.0" /><line stroke="black" x1="570.0" x2="571.0" y1="500.0" y2="498.267949192" /><line stroke="black" x1="571.0" x2="572.0" y1="498.267949192" y2="500.0" /><line stroke="black" x1="572.0" x2="574.0" y1="500.0" y2="500.0" /><line stroke="black" x1="574.0" x2="575.0" y1="500.0" y2="498.267949192" /><line stroke="black" x1="575.0" x2="574.0" y1="498.267949192" y2="496.535898385" /><line stroke="black" x1="574.0" x2="576.0" y1="496.535898385" y2="496.535898385" /><line stroke="black" x1="576.0" x2="577.0" y1="496.535898385" y2="494.803847577" /><line stroke="black" x1="577.0" x2="578.0" y1="494.803847577" y2="496.535898385" /><line stroke="black" x1="578.0" x2="580.0" y1="496.535898385" y2="496.535898385" /><line stroke="black" x1="580.0" x2="579.0" y1="496.535898385" y2="498.267949192" /><line stroke="black" x1="579.0" x2="580.0" y1="498.267949192" y2="500.0" /><line stroke="black" x1="580.0" x2="582.0" y1="500.0" y2="500.0" /><line stroke="black" x1="582.0" x2="583.0" y1="500.0" y2="498.267949192" /><line stroke="black" x1="583.0" x2="584.0" y1="498.267949192" y2="500.0" /><line stroke="black" x1="584.0" x2="586.0" y1="500.0" y2="500.0" /></svg>